HIERARCHY
ROOT Hips
{
	OFFSET -3.958830 18.904000 13.208200
	CHANNELS 6 Xposition Yposition Zposition Zrotation Yrotation Xrotation 
	JOINT LHipJoint
	{
		OFFSET 0.000000 0.000000 0.000000
		CHANNELS 3 Zrotation Yrotation Xrotation
		JOINT LeftUpLeg
		{
			OFFSET 1.800000 -1.400000 0.085000
			CHANNELS 3 Zrotation Yrotation Xrotation
			JOINT LeftLeg
			{
				OFFSET 2.215000 -6.000000 0.000000
				CHANNELS 3 Zrotation Yrotation Xrotation
				JOINT LeftFoot
				{
					OFFSET 2.500000 -6.900000 0.000000
					CHANNELS 3 Zrotation Yrotation Xrotation
					JOINT LeftToeBase
					{
						OFFSET 0.200000 -0.500000 1.950000
						CHANNELS 3 Zrotation Yrotation Xrotation
						End Site
						{
							OFFSET 0.000000 0.000000 0.000000
						}
					}
				}
			}
		}
	}
	JOINT RHipJoint
	{
		OFFSET 0.000000 0.000000 0.000000
		CHANNELS 3 Zrotation Yrotation Xrotation
		JOINT RightUpLeg
		{
			OFFSET -1.800000 -1.400000 0.085000
			CHANNELS 3 Zrotation Yrotation Xrotation
			JOINT RightLeg
			{
				OFFSET -2.215000 -6.000000 0.000000
				CHANNELS 3 Zrotation Yrotation Xrotation
				JOINT RightFoot
				{
					OFFSET -2.500000 -6.900000 0.000000
					CHANNELS 3 Zrotation Yrotation Xrotation
					JOINT RightToeBase
					{
						OFFSET -0.200000 -0.500000 1.950000
						CHANNELS 3 Zrotation Yrotation Xrotation
						End Site
						{
							OFFSET 0.000000 0.000000 0.000000
						}
					}
				}
			}
		}
	}
	JOINT LowerBack
	{
		OFFSET 0.000000 0.000000 0.000000
		CHANNELS 3 Zrotation Yrotation Xrotation
		JOINT Spine
		{
			OFFSET -0.087000 1.940000 -0.288900
			CHANNELS 3 Zrotation Yrotation Xrotation
			JOINT Spine1
			{
				OFFSET 0.000000 1.950000 0.060000
				CHANNELS 3 Zrotation Yrotation Xrotation
				JOINT Neck
				{
					OFFSET 0.000000 0.000000 0.000000
					CHANNELS 3 Zrotation Yrotation Xrotation
					JOINT Neck1
					{
						OFFSET 0.000000 1.600000 0.340000
						CHANNELS 3 Zrotation Yrotation Xrotation
						JOINT Head
						{
							OFFSET 0.000000 1.667000 -0.240000
							CHANNELS 3 Zrotation Yrotation Xrotation
							End Site
							{
								OFFSET 0.000000 0.000000 0.000000
							}
						}
					}
				}
				JOINT LeftShoulder
				{
					OFFSET 0.000000 0.000000 0.000000
					CHANNELS 3 Zrotation Yrotation Xrotation
					JOINT LeftArm
					{
						OFFSET 2.700000 1.550000 -0.730000
						CHANNELS 3 Zrotation Yrotation Xrotation
						JOINT LeftForeArm
						{
							OFFSET 5.450000 0.000000 0.000000
							CHANNELS 3 Zrotation Yrotation Xrotation
							JOINT LeftHand
							{
								OFFSET 3.450000 0.000000 0.000000
								CHANNELS 3 Zrotation Yrotation Xrotation
								JOINT LeftHandIndex1
								{
									OFFSET 0.750000 0.000000 0.000000
									CHANNELS 3 Zrotation Yrotation Xrotation
									End Site
									{
										OFFSET 0.000000 0.000000 0.000000
									}
								}
							}
						}
					}
				}
				JOINT RightShoulder
				{
					OFFSET 0.000000 0.000000 0.000000
					CHANNELS 3 Zrotation Yrotation Xrotation
					JOINT RightArm
					{
						OFFSET -2.700000 1.550000 -0.730000
						CHANNELS 3 Zrotation Yrotation Xrotation
						JOINT RightForeArm
						{
							OFFSET -5.450000 0.000000 0.000000
							CHANNELS 3 Zrotation Yrotation Xrotation
							JOINT RightHand
							{
								OFFSET -3.450000 0.000000 0.000000
								CHANNELS 3 Zrotation Yrotation Xrotation
								JOINT RightHandIndex1
								{
									OFFSET -0.750000 0.000000 0.000000
									CHANNELS 3 Zrotation Yrotation Xrotation
									End Site
									{
										OFFSET 0.000000 0.000000 0.000000
									}
								}
							}
						}
					}
				}
			}
		}
	}
}
MOTION
Frames: 6
Frame Time: 0.016667
0.431740 17.365370 -1.469520 -1.589826 -1.863084 7.983541 -14.975739 12.407722 2.772456 22.812366 -1.060097 -11.001123 -3.225017 4.131609 1.698865 -1.009927 5.939124 3.129031 0.002110 -0.595790 -0.263570 18.620397 -10.370173 2.841696 -0.773250 0.950409 -7.828074 11.583299 -5.179693 3.859961 -0.408027 -4.331477 3.001718 0.045750 1.588920 0.784040 -4.330864 -0.951226 -6.997918 17.302453 -0.852881 1.915009 -9.995441 0.403741 7.125784 2.391203 -4.609212 -8.825880 -7.351972 5.275368 18.438098 -4.951050 0.865010 -5.140990 -17.217745 -6.152193 2.384407 4.162208 0.936093 2.178512 9.480093 4.357845 -1.803407 -5.038132 2.537900 0.586750 0.929720 -0.444700 0.576300 12.435486 8.037492 6.579142 -3.608477 -0.242882 -0.956835 -9.949376 3.370976 -0.760382 1.779717 -1.361017 -0.724510 0.809460 0.558020 -0.015240 
0.440500 17.367830 -1.470310 -1.609273 -1.745227 7.939914 -14.966113 12.421126 2.745220 22.707345 -1.093507 -10.701668 -2.706241 4.022508 1.498537 -0.999352 5.903807 3.145070 -0.002790 -0.603560 -0.273330 18.630917 -10.374864 2.858362 -0.610327 0.873753 -7.566559 11.209766 -5.069386 3.388730 -0.411090 -4.318030 3.010606 0.035800 1.584800 0.787240 -4.359027 -0.953846 -6.995368 17.620374 -0.936330 1.907149 -10.171054 0.354065 7.094947 2.375960 -4.726197 -8.839622 -7.589613 5.313783 18.643826 -4.788730 0.790750 -5.042760 -17.531001 -6.099890 2.411271 4.449979 1.365347 2.174450 9.427222 5.540539 -1.777085 -5.046983 2.540421 0.585680 0.924210 -0.443550 0.575960 12.755000 7.993925 6.649751 -3.962952 -0.869843 -0.955293 -9.891114 2.338296 -0.700534 1.800336 -1.358562 -0.716000 0.800620 0.562200 -0.012370 
0.448700 17.370050 -1.475910 -1.544220 -1.674662 7.868392 -14.963513 12.426404 2.756129 22.793527 -1.083077 -10.582176 -2.777621 4.048120 1.460947 -0.976511 5.919513 3.140650 -0.018730 -0.621970 -0.286830 18.631658 -10.364034 2.859471 -0.772810 0.842879 -7.444905 11.230293 -5.062120 3.198650 -0.414603 -4.321782 3.011530 0.015070 1.584580 0.790100 -4.364401 -0.986986 -7.013898 17.701291 -1.008719 2.024123 -10.232075 0.318176 7.014943 2.382398 -4.800064 -8.912311 -7.780658 5.306340 18.979228 -4.727640 0.769980 -4.864530 -17.750656 -6.118797 2.472681 4.562793 1.724319 2.140803 9.443856 6.381221 -1.743772 -5.050859 2.536145 0.588690 0.918580 -0.439800 0.573680 12.940991 8.044375 6.758645 -4.204051 -1.402935 -0.969695 -9.773172 1.605119 -0.640784 1.822781 -1.347503 -0.710010 0.792600 0.568080 -0.006540 
0.453890 17.369740 -1.480430 -1.362556 -1.689567 7.878409 -14.967018 12.430906 2.750517 22.720954 -1.079876 -10.574245 -2.812857 4.053584 1.487150 -0.968821 5.916887 3.142932 -0.028260 -0.627900 -0.300920 18.625199 -10.357246 2.859784 -1.258638 0.847457 -7.451021 11.659840 -5.106549 3.045485 -0.413742 -4.361054 3.000894 0.011830 1.590650 0.791500 -4.351573 -1.005655 -7.010104 17.448213 -0.960497 1.987239 -10.113010 0.342583 7.069454 2.358383 -4.782980 -8.901881 -7.765614 5.292273 19.049590 -4.772590 0.774000 -4.559610 -17.791149 -6.042355 2.468737 4.508858 1.820920 2.125417 9.532682 6.815691 -1.717064 -5.065117 2.540340 0.576660 0.926150 -0.446540 0.574410 13.036969 7.960888 6.768280 -4.302500 -1.674797 -0.943728 -9.687519 1.020267 -0.620868 1.832824 -1.351446 -0.707290 0.787960 0.572700 -0.001850 
0.458170 17.370950 -1.485450 -1.281535 -1.706555 7.884462 -14.966835 12.430487 2.748661 22.715582 -1.083651 -10.616121 -2.778258 4.044448 1.484521 -0.958899 5.905757 3.148318 -0.026880 -0.623130 -0.305430 18.623904 -10.355799 2.859410 -1.511087 0.850018 -7.466684 11.755196 -5.094323 2.912149 -0.412792 -4.372044 2.998965 0.012230 1.593050 0.791080 -4.350720 -1.008551 -7.009009 17.361312 -0.957375 1.983593 -10.050183 0.337481 7.059082 2.315289 -4.810239 -8.869728 -7.818043 5.290739 19.094814 -4.654990 0.705130 -4.368400 -17.840635 -5.959954 2.453830 4.443743 1.913272 2.104674 9.730035 6.979428 -1.687779 -5.065434 2.550309 0.566460 0.927380 -0.449490 0.578340 13.168219 7.903952 6.744632 -4.439195 -1.780018 -0.928362 -9.624583 0.605471 -0.614222 1.844696 -1.357711 -0.701280 0.784410 0.568690 0.004620 
0.460280 17.372410 -1.491250 -1.253514 -1.751865 7.881704 -14.966119 12.438078 2.742489 22.759437 -1.079528 -10.756396 -2.663727 4.036541 1.601112 -0.961319 5.896185 3.152301 -0.027450 -0.624480 -0.308820 18.622741 -10.364518 2.855353 -1.633743 0.860210 -7.514504 11.607524 -5.068806 2.892188 -0.408626 -4.369157 2.999131 0.011270 1.600440 0.795270 -4.350016 -1.005811 -7.004257 17.270914 -0.930764 2.001571 -9.972243 0.347707 7.049924 2.286350 -4.773356 -8.824236 -7.755099 5.278418 19.113909 -4.601190 0.660550 -4.220320 -17.952855 -5.945361 2.432340 4.578000 2.012363 2.109037 9.853289 6.818429 -1.688765 -5.065689 2.558686 0.562500 0.932100 -0.453170 0.580920 13.332479 7.860483 6.714371 -4.572363 -1.865480 -0.913138 -9.530984 0.392102 -0.615493 1.847683 -1.362694 -0.700140 0.782620 0.569250 0.008480 
